<svg xmlns="http://www.w3.org/2000/svg" width="33" height="32" viewBox="0 0 33 32" fill="none">
  <g clip-path="url(#clip0_2_5149)">
    <path d="M16.0941 2.66663C8.73408 2.66663 2.76074 8.63996 2.76074 16C2.76074 23.36 8.73408 29.3333 16.0941 29.3333C23.4541 29.3333 29.4274 23.36 29.4274 16C29.4274 8.63996 23.4541 2.66663 16.0941 2.66663ZM16.0941 6.66663C18.3074 6.66663 20.0941 8.45329 20.0941 10.6666C20.0941 12.88 18.3074 14.6666 16.0941 14.6666C13.8807 14.6666 12.0941 12.88 12.0941 10.6666C12.0941 8.45329 13.8807 6.66663 16.0941 6.66663ZM16.0941 25.6C12.7607 25.6 9.81408 23.8933 8.09408 21.3066C8.13408 18.6533 13.4274 17.2 16.0941 17.2C18.7474 17.2 24.0541 18.6533 24.0941 21.3066C22.3741 23.8933 19.4274 25.6 16.0941 25.6Z" fill="currentColor"/>
  </g>
  <defs>
    <clipPath id="clip0_2_5149">
      <rect width="32" height="32" fill="currentColor" transform="translate(0.09375)"/>
    </clipPath>
  </defs>
</svg>
