<svg xmlns="http://www.w3.org/2000/svg" width="25" height="24" viewBox="0 0 25 24" fill="none">
  <g clip-path="url(#clip0_2_5151)">
    <path d="M16.5188 12.998C17.2688 12.998 17.9288 12.588 18.2687 11.968L21.8487 5.47805C22.2188 4.81805 21.7388 3.99805 20.9788 3.99805H6.17875L5.23875 1.99805H1.96875V3.99805H3.96875L7.56875 11.588L6.21875 14.028C5.48875 15.368 6.44875 16.998 7.96875 16.998H19.9688V14.998H7.96875L9.06875 12.998H16.5188ZM7.12875 5.99805H19.2787L16.5188 10.998H9.49875L7.12875 5.99805ZM7.96875 17.998C6.86875 17.998 5.97875 18.898 5.97875 19.998C5.97875 21.098 6.86875 21.998 7.96875 21.998C9.06875 21.998 9.96875 21.098 9.96875 19.998C9.96875 18.898 9.06875 17.998 7.96875 17.998ZM17.9688 17.998C16.8688 17.998 15.9788 18.898 15.9788 19.998C15.9788 21.098 16.8688 21.998 17.9688 21.998C19.0688 21.998 19.9688 21.098 19.9688 19.998C19.9688 18.898 19.0688 17.998 17.9688 17.998Z" fill="currentColor"/>
  </g>
  <defs>
    <clipPath id="clip0_2_5151">
      <rect width="24" height="24" fill="currentColor" transform="translate(0.09375)"/>
    </clipPath>
  </defs>
</svg>
